<svg width="1683" height="343" viewBox="0 0 1683 343" fill="none" xmlns="http://www.w3.org/2000/svg">
<path d="M136.322 78.4701C159.836 78.4701 177.631 83.3953 189.706 93.2456C202.099 103.096 210.52 116.283 214.969 132.806C219.735 149.011 222.119 167.123 222.119 187.142V309.159C222.119 317.421 219.418 324.412 214.016 330.131C208.613 335.533 201.782 338.234 193.52 338.234C185.258 338.234 178.426 335.533 173.024 330.131C167.622 324.412 164.921 317.421 164.921 309.159V187.142C164.921 176.656 163.491 167.282 160.631 159.021C158.089 150.441 153.322 143.61 146.331 138.526C139.34 133.442 129.331 130.899 116.302 130.899C103.592 130.899 92.7877 133.442 83.8903 138.526C75.3106 143.61 68.6375 150.441 63.871 159.021C59.4223 167.282 57.1979 176.656 57.1979 187.142V309.159C57.1979 317.421 54.4969 324.412 49.0949 330.131C43.6928 335.533 36.8609 338.234 28.599 338.234C20.337 338.234 13.5051 335.533 8.10303 330.131C2.70101 324.412 0 317.421 0 309.159V112.311C0 104.049 2.70101 97.2176 8.10303 91.8157C13.5051 86.0962 20.337 83.2364 28.599 83.2364C36.8609 83.2364 43.6928 86.0962 49.0949 91.8157C54.4969 97.2176 57.1979 104.049 57.1979 112.311V132.806L50.0482 131.376C52.9081 125.974 57.039 120.255 62.441 114.217C67.8431 107.862 74.1984 101.984 81.507 96.582C88.8156 91.1802 97.0776 86.8905 106.293 83.713C115.508 80.2177 125.518 78.4701 136.322 78.4701Z" fill="#0E0E0E"/>
<path d="M531.322 210.973C531.322 237.029 525.444 260.066 513.686 280.085C502.247 299.786 486.676 315.197 466.975 326.318C447.591 337.44 425.824 343 401.674 343C377.524 343 355.598 337.44 335.896 326.318C316.512 315.197 300.942 299.786 289.185 280.085C277.745 260.066 272.025 237.029 272.025 210.973C272.025 184.918 277.745 162.039 289.185 142.339C300.942 122.32 316.512 106.75 335.896 95.6288C355.598 84.1896 377.524 78.4701 401.674 78.4701C425.824 78.4701 447.591 84.1896 466.975 95.6288C486.676 106.75 502.247 122.32 513.686 142.339C525.444 162.039 531.322 184.918 531.322 210.973ZM474.124 210.973C474.124 194.768 470.788 180.787 464.115 169.03C457.76 156.955 449.021 147.582 437.899 140.909C427.095 134.236 415.02 130.899 401.674 130.899C388.328 130.899 376.094 134.236 364.972 140.909C354.168 147.582 345.429 156.955 338.756 169.03C332.401 180.787 329.223 194.768 329.223 210.973C329.223 226.861 332.401 240.842 338.756 252.917C345.429 264.674 354.168 273.889 364.972 280.562C376.094 287.234 388.328 290.571 401.674 290.571C415.02 290.571 427.095 287.234 437.899 280.562C449.021 273.889 457.76 264.674 464.115 252.917C470.788 240.842 474.124 226.861 474.124 210.973Z" fill="#0E0E0E"/>
<path d="M584.242 88.0027H697.207C704.834 88.0027 711.189 90.5447 716.273 95.6288C721.358 100.713 723.9 107.068 723.9 114.694C723.9 122.002 721.358 128.199 716.273 133.283C711.189 138.049 704.834 140.432 697.207 140.432H584.242C576.615 140.432 570.26 137.89 565.176 132.806C560.091 127.722 557.549 121.367 557.549 113.741C557.549 106.432 560.091 100.395 565.176 95.6288C570.26 90.5447 576.615 88.0027 584.242 88.0027ZM635.243 28.4238C643.505 28.4238 650.178 31.2836 655.262 37.0032C660.664 42.405 663.365 49.2367 663.365 57.4983V269.599C663.365 274.048 664.16 277.702 665.749 280.562C667.655 283.421 670.038 285.487 672.898 286.758C676.076 288.029 679.413 288.664 682.908 288.664C686.721 288.664 690.217 288.029 693.394 286.758C696.572 285.169 700.226 284.375 704.357 284.375C708.806 284.375 712.778 286.44 716.273 290.571C720.087 294.702 721.993 300.421 721.993 307.73C721.993 316.627 717.068 323.935 707.217 329.655C697.684 335.374 687.357 338.234 676.235 338.234C669.562 338.234 662.094 337.757 653.832 336.804C645.888 335.533 638.262 332.832 630.953 328.701C623.962 324.253 618.084 317.58 613.317 308.683C608.551 299.786 606.167 287.552 606.167 271.982V57.4983C606.167 49.2367 608.868 42.405 614.271 37.0032C619.99 31.2836 626.981 28.4238 635.243 28.4238Z" fill="#0E0E0E"/>
<path d="M894.205 343C867.195 343 843.68 337.44 823.661 326.318C803.96 314.879 788.707 299.468 777.903 280.085C767.416 260.702 762.173 238.777 762.173 214.31C762.173 185.712 767.893 161.404 779.333 141.385C791.09 121.049 806.343 105.479 825.091 94.6755C843.839 83.8719 863.7 78.4701 884.672 78.4701C900.878 78.4701 916.131 81.8065 930.43 88.4793C945.048 95.1521 957.917 104.367 969.039 116.124C980.161 127.563 988.899 140.909 995.255 156.161C1001.93 171.413 1005.26 187.619 1005.26 204.777C1004.95 212.403 1001.93 218.6 996.208 223.366C990.488 228.132 983.815 230.515 976.189 230.515H794.109L779.809 182.852H954.74L944.253 192.385V179.516C943.618 170.301 940.281 162.039 934.244 154.731C928.524 147.423 921.215 141.703 912.318 137.572C903.738 133.124 894.523 130.899 884.672 130.899C875.139 130.899 866.242 132.17 857.98 134.713C849.718 137.255 842.568 141.544 836.531 147.582C830.493 153.619 825.727 161.722 822.231 171.89C818.736 182.058 816.988 194.927 816.988 210.497C816.988 227.656 820.483 242.272 827.474 254.347C834.783 266.104 843.998 275.16 855.12 281.515C866.559 287.552 878.635 290.571 891.345 290.571C903.103 290.571 912.477 289.618 919.468 287.711C926.458 285.805 932.019 283.58 936.15 281.038C940.599 278.178 944.571 275.795 948.067 273.889C953.786 271.029 959.188 269.599 964.273 269.599C971.263 269.599 976.983 271.982 981.432 276.749C986.198 281.515 988.582 287.076 988.582 293.431C988.582 302.01 984.133 309.795 975.235 316.786C966.974 323.776 955.375 329.972 940.44 335.374C925.505 340.458 910.093 343 894.205 343Z" fill="#0E0E0E"/>
<path d="M1109.1 307.623C1109.1 315.885 1106.4 322.876 1101 328.595C1095.59 333.997 1088.76 336.698 1080.5 336.698C1072.24 336.698 1065.41 333.997 1060 328.595C1054.6 322.876 1051.9 315.885 1051.9 307.623V110.775C1051.9 102.513 1051.9 87.7904 1051.9 82.4945C1057.2 82.4945 1072.45 82.4945 1080.71 82.4945C1089.35 82.4945 1101.16 82.4945 1109.1 82.4945C1109.1 87.7904 1109.1 102.513 1109.1 110.775V307.623Z" fill="#0E0E0E"/>
<path d="M1304.21 78.4701C1327.72 78.4701 1345.51 83.3953 1357.59 93.2456C1369.98 103.096 1378.4 116.283 1382.85 132.806C1387.62 149.011 1390 167.123 1390 187.142V309.159C1390 317.421 1387.3 324.412 1381.9 330.131C1376.5 335.533 1369.67 338.234 1361.4 338.234C1353.14 338.234 1346.31 335.533 1340.91 330.131C1335.51 324.412 1332.8 317.421 1332.8 309.159V187.142C1332.8 176.656 1331.37 167.282 1328.51 159.021C1325.97 150.441 1321.21 143.61 1314.22 138.526C1307.22 133.442 1297.21 130.899 1284.19 130.899C1271.48 130.899 1260.67 133.442 1251.77 138.526C1243.19 143.61 1236.52 150.441 1231.75 159.021C1227.31 167.282 1225.08 176.656 1225.08 187.142V309.159C1225.08 317.421 1222.38 324.412 1216.98 330.131C1211.58 335.533 1204.74 338.234 1196.48 338.234C1188.22 338.234 1181.39 335.533 1175.99 330.131C1170.58 324.412 1167.88 317.421 1167.88 309.159V112.311C1167.88 104.049 1170.58 97.2176 1175.99 91.8157C1181.39 86.0962 1188.22 83.2364 1196.48 83.2364C1204.74 83.2364 1211.58 86.0962 1216.98 91.8157C1222.38 97.2176 1225.08 104.049 1225.08 112.311V132.806L1217.93 131.376C1220.79 125.974 1224.92 120.255 1230.32 114.217C1235.73 107.862 1242.08 101.984 1249.39 96.582C1256.7 91.1802 1264.96 86.8905 1274.18 83.713C1283.39 80.2177 1293.4 78.4701 1304.21 78.4701Z" fill="#0E0E0E"/>
<path d="M1571.94 343C1544.93 343 1521.42 337.44 1501.4 326.318C1481.7 314.879 1466.44 299.468 1455.64 280.085C1445.15 260.702 1439.91 238.777 1439.91 214.31C1439.91 185.712 1445.63 161.404 1457.07 141.385C1468.83 121.049 1484.08 105.479 1502.83 94.6755C1521.57 83.8719 1541.44 78.4701 1562.41 78.4701C1578.61 78.4701 1593.87 81.8065 1608.17 88.4793C1622.78 95.1521 1635.65 104.367 1646.77 116.124C1657.9 127.563 1666.64 140.909 1672.99 156.161C1679.66 171.413 1683 187.619 1683 204.777C1682.68 212.403 1679.66 218.6 1673.94 223.366C1668.22 228.132 1661.55 230.515 1653.92 230.515H1471.84L1457.54 182.852H1632.48L1621.99 192.385V179.516C1621.35 170.301 1618.02 162.039 1611.98 154.731C1606.26 147.423 1598.95 141.703 1590.05 137.572C1581.47 133.124 1572.26 130.899 1562.41 130.899C1552.87 130.899 1543.98 132.17 1535.72 134.713C1527.45 137.255 1520.3 141.544 1514.27 147.582C1508.23 153.619 1503.46 161.722 1499.97 171.89C1496.47 182.058 1494.72 194.927 1494.72 210.497C1494.72 227.656 1498.22 242.272 1505.21 254.347C1512.52 266.104 1521.73 275.16 1532.86 281.515C1544.3 287.552 1556.37 290.571 1569.08 290.571C1580.84 290.571 1590.21 289.618 1597.2 287.711C1604.19 285.805 1609.75 283.58 1613.89 281.038C1618.33 278.178 1622.31 275.795 1625.8 273.889C1631.52 271.029 1636.92 269.599 1642.01 269.599C1649 269.599 1654.72 271.982 1659.17 276.749C1663.93 281.515 1666.32 287.076 1666.32 293.431C1666.32 302.01 1661.87 309.795 1652.97 316.786C1644.71 323.776 1633.11 329.972 1618.18 335.374C1603.24 340.458 1587.83 343 1571.94 343Z" fill="#0E0E0E"/>
<path d="M1051 12C1051 5.37258 1056.37 0 1063 0H1110V56C1110 62.6274 1104.63 68 1098 68H1051V12Z" fill="#E27F2D"/>
</svg>
